<svg width="285" height="285" viewBox="0 0 285 285" fill="none" xmlns="http://www.w3.org/2000/svg">
<g clip-path="url(#clip0)">
<path d="M222.701 135.9L89.652 2.857C87.748 0.955 85.557 0 83.084 0C80.61 0 78.42 0.955 76.517 2.857L62.244 17.133C60.338 19.036 59.389 21.222 59.389 23.7C59.389 26.178 60.338 28.364 62.244 30.267L174.448 142.471L62.244 254.677C60.338 256.58 59.389 258.77 59.389 261.241C59.389 263.718 60.338 265.908 62.244 267.811L76.518 282.082C78.421 283.987 80.611 284.936 83.085 284.936C85.558 284.936 87.748 283.985 89.652 282.082L222.694 149.038C224.596 147.136 225.548 144.945 225.548 142.471C225.548 139.997 224.603 137.807 222.701 135.9Z" fill="#2D91B0"/>
</g>
<defs>
<clipPath id="clip0">
<rect width="284.935" height="284.936" fill="white"/>
</clipPath>
</defs>
</svg>
