<svg width="55" height="55" viewBox="0 0 55 55" fill="none" xmlns="http://www.w3.org/2000/svg">
<path d="M38.5292 25.4994C36.4512 30.2483 31.9189 34.2203 27.524 34.2203C22.1581 34.2203 18.26 30.2947 16.182 25.5475C4.09749 31.8072 5.6203 47.6489 5.6203 47.6489C5.6203 49.818 7.32874 50.1325 9.33624 50.1325H27.5223H45.6809C47.6919 50.1325 49.4055 49.8163 49.4055 47.6489C49.4072 47.6489 50.612 31.7608 38.5292 25.4994Z" fill="white"/>
<path d="M27.5223 31.6456C33.574 31.6456 38.3848 22.9831 38.3848 15.8263C38.3848 8.66766 33.4795 2.86516 27.4277 2.86516C21.376 2.86516 16.469 8.66766 16.469 15.8263C16.469 22.9848 21.4688 31.6456 27.5223 31.6456Z" fill="white"/>
</svg>
