<svg width="52" height="52" viewBox="0 0 52 52" fill="none" xmlns="http://www.w3.org/2000/svg">
<path d="M47.6667 26C46.4701 26 45.5 26.9701 45.5 28.1667V43.3334C45.5 44.5304 44.5304 45.5 43.3333 45.5H8.66666C7.46957 45.5 6.49999 44.5304 6.49999 43.3334V8.66669C6.49999 7.4696 7.46957 6.50002 8.66666 6.50002H23.8333C25.0299 6.50002 26 5.5299 26 4.33335C26 3.13681 25.0299 2.16669 23.8333 2.16669H8.66666C5.07703 2.16669 2.16666 5.07706 2.16666 8.66669V43.3334C2.16666 46.923 5.07703 49.8334 8.66666 49.8334H43.3333C46.9229 49.8334 49.8333 46.923 49.8333 43.3334V28.1667C49.8333 26.9701 48.8632 26 47.6667 26Z" fill="white"/>
<path d="M49.8312 4.3106C49.8295 4.17573 49.8171 4.04085 49.7905 3.90869C49.7781 3.84802 49.7553 3.79169 49.738 3.73265C49.7163 3.65573 49.6979 3.57827 49.667 3.50352C49.64 3.43744 49.602 3.3784 49.5685 3.3161C49.5349 3.25381 49.5073 3.18935 49.4672 3.12977C49.4022 3.03281 49.3258 2.94452 49.2467 2.85948C49.2294 2.84052 49.2169 2.81885 49.1985 2.80098C49.1817 2.78419 49.1622 2.77335 49.1443 2.7571C49.0582 2.67585 48.9678 2.5984 48.8686 2.53177C48.8101 2.49277 48.7462 2.46515 48.685 2.4321C48.6222 2.39852 48.5615 2.36006 48.4954 2.33244C48.4201 2.30102 48.3421 2.28315 48.2641 2.26094C48.2062 2.24415 48.1504 2.2214 48.0903 2.20948C47.951 2.18131 47.8086 2.16669 47.6661 2.16669H34.6667C33.4701 2.16669 32.5 3.13681 32.5 4.33335C32.5 5.5299 33.4701 6.50002 34.6667 6.50002H42.4358L24.6854 24.2504C23.8393 25.0965 23.8393 26.4686 24.6854 27.3141C25.5315 28.1602 26.9035 28.1602 27.749 27.3141L45.5 9.56369V17.3334C45.5 18.5299 46.4701 19.5 47.6667 19.5C48.8632 19.5 49.8333 18.5299 49.8333 17.3334V4.33335C49.8333 4.32577 49.8312 4.31873 49.8312 4.3106Z" fill="white"/>
</svg>
