<svg width="402" height="417" viewBox="0 0 402 417" fill="none" xmlns="http://www.w3.org/2000/svg">
<path d="M166.543 175.349C214.964 175.349 254.217 136.095 254.217 87.6743C254.217 39.2531 214.964 0 166.543 0C118.121 0 78.8683 39.2531 78.8683 87.6743C78.8683 136.095 118.121 175.349 166.543 175.349Z" fill="white"/>
<path d="M202.187 330.125C202.187 274.395 242.593 228.203 295.691 218.977C281.33 200.499 263.426 185.148 243.045 174.115C222.638 192.185 195.915 203.235 166.543 203.235C137.3 203.235 110.673 192.28 90.3184 174.384C37.2117 203.366 0.932739 261.511 0.932739 328.544C0.932739 339.099 1.87968 349.402 3.5998 359.445H206.166C203.656 350.08 202.187 340.289 202.187 330.125Z" fill="white"/>
<path d="M315.125 243.25C267.153 243.25 228.25 282.153 228.25 330.125C228.25 378.097 267.153 417 315.125 417C363.097 417 402 378.097 402 330.125C402 282.153 363.097 243.25 315.125 243.25ZM364.461 361.035L346.035 379.461L315.125 348.551L284.215 379.47L265.789 361.035L296.699 330.125L265.789 299.215L284.215 280.789L315.125 311.699L346.035 280.789L364.461 299.224L333.551 330.125L364.461 361.035Z" fill="white"/>
</svg>
