<svg width="285" height="285" viewBox="0 0 285 285" fill="none" xmlns="http://www.w3.org/2000/svg">
<g clip-path="url(#clip0)">
<path d="M277.515 135.9L144.464 2.857C142.565 0.955 140.375 0 137.9 0C135.428 0 133.241 0.955 131.338 2.857L117.061 17.132C115.158 19.035 114.208 21.221 114.208 23.699C114.208 26.177 115.158 28.363 117.061 30.266L229.268 142.47L117.062 254.677C115.159 256.58 114.209 258.77 114.209 261.241C114.209 263.718 115.159 265.908 117.062 267.811L131.339 282.082C133.241 283.987 135.428 284.936 137.901 284.936C140.379 284.936 142.566 283.985 144.464 282.082L277.515 149.038C279.417 147.136 280.366 144.945 280.366 142.471C280.366 139.997 279.417 137.807 277.515 135.9Z" fill="#2D91B0"/>
<path d="M170.732 142.471C170.732 139.997 169.785 137.806 167.875 135.9L34.833 2.857C32.931 0.955 30.741 0 28.267 0C25.793 0 23.602 0.955 21.7 2.857L7.42601 17.133C5.52001 19.036 4.57001 21.222 4.57001 23.7C4.57001 26.178 5.52001 28.364 7.42601 30.267L119.63 142.471L7.42601 254.677C5.52001 256.58 4.57001 258.77 4.57001 261.241C4.57001 263.718 5.52001 265.908 7.42601 267.811L21.699 282.082C23.602 283.987 25.792 284.936 28.266 284.936C30.74 284.936 32.93 283.985 34.833 282.082L167.875 149.038C169.785 147.136 170.732 144.945 170.732 142.471Z" fill="#2D91B0"/>
</g>
<defs>
<clipPath id="clip0">
<rect width="284.936" height="284.936" fill="white"/>
</clipPath>
</defs>
</svg>
