<svg width="291" height="97" viewBox="0 0 291 97" fill="none" xmlns="http://www.w3.org/2000/svg">
<path d="M37.05 26.4C37.206 26.712 37.284 27.024 37.284 27.336C37.284 27.856 37.076 28.246 36.66 28.506C36.296 28.766 35.75 28.896 35.022 28.896H21.138V78.582C21.138 80.402 20.488 81.312 19.188 81.312C18.876 81.312 18.538 81.208 18.174 81V28.896H2.262C2.106 28.584 2.028 28.272 2.028 27.96C2.028 27.44 2.21 27.05 2.574 26.79C2.99 26.53 3.562 26.4 4.29 26.4H37.05ZM73.0787 67.584C75.1587 72.108 76.7187 75.254 77.7587 77.022C78.8507 78.79 79.8387 79.934 80.7227 80.454V80.922C80.0987 81.182 79.4487 81.312 78.7727 81.312C78.0447 81.312 77.3947 81.052 76.8227 80.532C76.2507 80.012 75.4707 78.894 74.4827 77.178C73.5467 75.41 72.2467 72.68 70.5827 68.988C68.6587 64.672 66.9947 61.526 65.5907 59.55C64.1867 57.522 62.5227 56.014 60.5987 55.026C59.3507 55.13 58.4147 55.182 57.7907 55.182H49.1327V78.582C49.1327 80.402 48.4827 81.312 47.1827 81.312C46.8707 81.312 46.5327 81.208 46.1687 81V40.908C46.1687 37.424 46.0127 34.642 45.7007 32.562C45.4407 30.482 44.9207 28.662 44.1407 27.102L44.6087 26.088C46.6887 26.088 48.8207 26.01 51.0047 25.854C51.6807 25.802 52.6947 25.75 54.0467 25.698C55.4507 25.646 56.6987 25.62 57.7907 25.62C63.6147 25.62 68.2427 26.946 71.6747 29.598C75.1587 32.198 76.9007 35.734 76.9007 40.206C76.9007 43.846 75.7827 46.914 73.5467 49.41C71.3107 51.906 68.2167 53.596 64.2647 54.48C65.7727 55.364 67.1507 56.768 68.3987 58.692C69.6987 60.616 71.2587 63.58 73.0787 67.584ZM47.6507 28.584C48.6387 31.184 49.1327 35.292 49.1327 40.908V52.764H59.0387C63.5627 52.764 67.1507 51.646 69.8027 49.41C72.5067 47.122 73.8587 44.054 73.8587 40.206C73.8587 36.514 72.5067 33.576 69.8027 31.392C67.1507 29.208 63.5627 28.116 59.0387 28.116C57.6867 28.116 56.4127 28.142 55.2167 28.194C54.0207 28.246 52.9807 28.298 52.0967 28.35C50.4327 28.506 48.9507 28.584 47.6507 28.584ZM173.888 81.78C168.896 81.78 164.528 80.636 160.784 78.348C157.04 76.06 154.154 72.81 152.126 68.598C150.098 64.334 149.084 59.368 149.084 53.7C149.084 48.032 150.098 43.092 152.126 38.88C154.154 34.616 157.04 31.34 160.784 29.052C164.528 26.764 168.896 25.62 173.888 25.62C176.748 25.62 179.4 26.088 181.844 27.024C184.34 27.908 186.316 28.948 187.772 30.144C189.28 31.288 190.034 32.172 190.034 32.796C190.034 33.732 189.514 34.2 188.474 34.2C186.602 32.224 184.366 30.716 181.766 29.676C179.218 28.584 176.384 28.038 173.264 28.038C169 28.038 165.256 29.104 162.032 31.236C158.86 33.316 156.416 36.28 154.7 40.128C152.984 43.976 152.126 48.5 152.126 53.7C152.126 58.9 152.984 63.424 154.7 67.272C156.416 71.12 158.86 74.11 162.032 76.242C165.256 78.322 169 79.362 173.264 79.362C176.384 79.362 179.218 78.842 181.766 77.802C184.366 76.71 186.602 75.176 188.474 73.2C189.514 73.2 190.034 73.668 190.034 74.604C190.034 75.228 189.28 76.138 187.772 77.334C186.316 78.478 184.34 79.518 181.844 80.454C179.4 81.338 176.748 81.78 173.888 81.78ZM230.048 78.504C230.204 78.816 230.282 79.128 230.282 79.44C230.282 79.96 230.074 80.35 229.658 80.61C229.294 80.87 228.748 81 228.02 81H199.394L198.926 79.986C199.706 78.426 200.226 76.632 200.486 74.604C200.798 72.576 200.954 69.82 200.954 66.336V40.908C200.954 37.424 200.798 34.694 200.486 32.718C200.226 30.742 199.706 28.974 198.926 27.414L199.394 26.4H228.8C228.956 26.712 229.034 27.024 229.034 27.336C229.034 27.856 228.826 28.246 228.41 28.506C228.046 28.766 227.5 28.896 226.772 28.896H202.514C203.45 31.34 203.918 35.344 203.918 40.908V50.892H226.304C226.46 51.204 226.538 51.516 226.538 51.828C226.538 52.816 225.784 53.31 224.276 53.31H203.918V66.336C203.918 72.004 203.45 76.06 202.514 78.504H230.048ZM254.15 81.78C250.718 81.78 247.65 81.338 244.946 80.454C242.242 79.518 240.11 78.478 238.55 77.334C236.99 76.138 236.21 75.228 236.21 74.604C236.21 73.668 236.73 73.2 237.77 73.2C241.618 77.308 246.896 79.362 253.604 79.362C258.44 79.362 262.106 78.322 264.602 76.242C267.098 74.162 268.346 71.198 268.346 67.35C268.346 65.062 267.852 63.086 266.864 61.422C265.876 59.758 264.264 58.25 262.028 56.898C259.792 55.494 256.75 54.142 252.902 52.842C247.494 50.97 243.672 48.916 241.436 46.68C239.2 44.444 238.082 41.61 238.082 38.178C238.082 34.122 239.382 31.028 241.982 28.896C244.582 26.712 248.274 25.62 253.058 25.62C256.178 25.62 259.038 26.088 261.638 27.024C264.238 27.908 266.292 28.948 267.8 30.144C269.308 31.288 270.062 32.172 270.062 32.796C270.062 33.732 269.542 34.2 268.502 34.2C266.63 32.224 264.42 30.716 261.872 29.676C259.324 28.584 256.516 28.038 253.448 28.038C249.496 28.038 246.428 28.922 244.244 30.69C242.112 32.458 241.046 34.902 241.046 38.022C241.046 40.778 242.086 43.092 244.166 44.964C246.246 46.784 249.834 48.604 254.93 50.424C258.986 51.88 262.184 53.388 264.524 54.948C266.916 56.508 268.632 58.25 269.672 60.174C270.764 62.046 271.31 64.308 271.31 66.96C271.31 71.692 269.828 75.358 266.864 77.958C263.9 80.506 259.662 81.78 254.15 81.78Z" fill="white"/>
<path d="M92 81L114.629 2L140 81" stroke="white" stroke-width="4" stroke-linecap="round" stroke-linejoin="round"/>
</svg>
