<svg width="671" height="900" viewBox="0 0 671 900" fill="none" xmlns="http://www.w3.org/2000/svg">
<rect opacity="0.7" width="671" height="900" fill="#C4C4C4"/>
<g clip-path="url(#clip0)">
<path d="M327.354 519.399C326.157 519.399 324.959 519.138 323.851 518.609L152.789 437.151C149.954 435.798 148.146 432.939 148.146 429.795V177.274C148.146 174.48 149.58 171.882 151.942 170.383C154.296 168.892 157.269 168.721 159.794 169.918L327.354 249.707L494.914 169.91C497.439 168.721 500.396 168.884 502.758 170.383C505.129 171.882 506.562 174.48 506.562 177.274V429.795C506.562 432.939 504.754 435.798 501.919 437.151L330.857 518.609C329.749 519.138 328.552 519.399 327.354 519.399ZM164.438 424.647L327.354 502.228L490.271 424.647V190.177L330.857 266.088C328.649 267.139 326.067 267.139 323.86 266.088L164.438 190.177V424.647Z" fill="#5D5A5A"/>
<path d="M327.354 227.412L185.348 159.793C181.283 157.854 179.564 152.991 181.495 148.935C183.434 144.87 188.289 143.167 192.353 145.074L327.354 209.369L462.355 145.074C466.428 143.167 471.275 144.87 473.213 148.935C475.144 152.991 473.425 157.854 469.361 159.793L327.354 227.412Z" fill="#5D5A5A"/>
<path d="M335.5 258.732H319.208V511.253H335.5V258.732Z" fill="#5D5A5A"/>
<rect width="15.0317" height="97.7058" rx="7.51583" transform="matrix(0.896873 -0.442289 0 1 386.074 281.415)" fill="#5D5A5A"/>
<rect width="15.0317" height="97.7058" rx="7.51583" transform="matrix(0.896873 -0.442289 0 1 425.556 261.945)" fill="#5D5A5A"/>
<path d="M362 413.54C377.018 431.252 418.842 445.79 466 362.253" stroke="#5D5A5A" stroke-width="12" stroke-linecap="round" stroke-linejoin="round"/>
</g>
<path d="M205.696 610.983C203.174 610.983 200.752 610.486 198.429 609.494C196.125 608.501 194.08 607.071 192.293 605.205C190.526 603.338 189.116 601.064 188.063 598.384C187.011 595.683 186.485 592.645 186.485 589.27C186.485 585.894 187.001 582.836 188.034 580.096C189.066 577.336 190.496 574.963 192.323 572.977C194.13 571.011 196.264 569.492 198.727 568.42C201.189 567.348 203.82 566.812 206.62 566.812C208.705 566.812 210.591 567.07 212.279 567.586C213.967 568.102 215.575 568.827 217.104 569.76L218.325 567.735H220.708L220.976 582.806H218.534C218.216 581.337 217.739 579.748 217.104 578.041C216.469 576.313 215.724 574.854 214.87 573.662C213.917 572.312 212.785 571.259 211.475 570.505C210.164 569.73 208.665 569.343 206.977 569.343C205.051 569.343 203.254 569.77 201.586 570.624C199.938 571.478 198.508 572.739 197.297 574.407C196.145 576.015 195.242 578.06 194.586 580.542C193.931 583.025 193.604 585.795 193.604 588.853C193.604 591.553 193.941 594.035 194.616 596.299C195.311 598.543 196.294 600.518 197.565 602.226C198.836 603.914 200.335 605.234 202.062 606.188C203.81 607.141 205.756 607.617 207.9 607.617C209.509 607.617 210.988 607.369 212.338 606.873C213.689 606.356 214.86 605.681 215.853 604.847C216.846 603.973 217.72 602.981 218.474 601.869C219.229 600.757 219.844 599.545 220.321 598.235L222.555 599.307C220.847 603.497 218.583 606.495 215.764 608.302C212.944 610.089 209.588 610.983 205.696 610.983ZM254.127 595.018C254.127 597.083 253.799 599.118 253.144 601.124C252.489 603.11 251.556 604.798 250.344 606.188C248.974 607.776 247.386 608.958 245.579 609.732C243.772 610.506 241.746 610.894 239.502 610.894C237.636 610.894 235.859 610.546 234.171 609.851C232.483 609.136 230.984 608.104 229.673 606.753C228.383 605.423 227.35 603.805 226.576 601.898C225.821 599.972 225.444 597.818 225.444 595.435C225.444 590.848 226.774 587.095 229.435 584.176C232.116 581.257 235.62 579.798 239.949 579.798C244.06 579.798 247.445 581.188 250.106 583.968C252.787 586.728 254.127 590.411 254.127 595.018ZM247.961 595.078C247.961 593.588 247.812 592.02 247.515 590.372C247.217 588.704 246.77 587.294 246.174 586.142C245.539 584.911 244.705 583.928 243.672 583.193C242.64 582.439 241.379 582.062 239.89 582.062C238.361 582.062 237.05 582.439 235.958 583.193C234.886 583.948 234.012 584.98 233.337 586.291C232.701 587.502 232.255 588.882 231.997 590.431C231.738 591.98 231.609 593.479 231.609 594.929C231.609 596.835 231.758 598.602 232.056 600.23C232.374 601.839 232.87 603.278 233.545 604.549C234.221 605.82 235.064 606.823 236.077 607.558C237.11 608.272 238.381 608.63 239.89 608.63C242.372 608.63 244.338 607.429 245.787 605.026C247.237 602.623 247.961 599.307 247.961 595.078ZM289.869 609.464L280.308 610.119L279.861 609.702V605.979H279.683C279.206 606.475 278.67 607.012 278.074 607.587C277.479 608.143 276.793 608.65 276.019 609.106C275.125 609.643 274.262 610.05 273.428 610.328C272.594 610.606 271.412 610.745 269.883 610.745C267.282 610.745 265.296 609.901 263.926 608.213C262.576 606.505 261.901 604.033 261.901 600.796V586.738C261.901 586.023 261.762 585.427 261.484 584.951C261.226 584.454 260.839 584.027 260.322 583.67C259.965 583.432 259.518 583.263 258.982 583.164C258.446 583.044 257.88 582.965 257.284 582.925V580.989L267.083 580.274L267.53 580.691V601.094C267.53 603.219 268.007 604.817 268.96 605.89C269.913 606.962 271.055 607.498 272.385 607.498C273.477 607.498 274.45 607.329 275.304 606.992C276.158 606.654 276.873 606.257 277.449 605.8C277.985 605.383 278.451 604.946 278.849 604.49C279.266 604.013 279.583 603.576 279.802 603.179V586.529C279.802 585.874 279.663 585.298 279.385 584.802C279.107 584.285 278.72 583.849 278.223 583.491C277.866 583.253 277.33 583.114 276.615 583.074C275.92 583.015 275.135 582.965 274.262 582.925V580.989L284.925 580.274L285.372 580.691V604.013C285.372 604.688 285.511 605.264 285.789 605.741C286.067 606.217 286.454 606.624 286.95 606.962C287.308 607.18 287.735 607.329 288.231 607.409C288.727 607.468 289.273 607.508 289.869 607.528V609.464ZM322.484 582.449C321.59 582.608 320.736 582.935 319.922 583.432C319.128 583.908 318.443 584.762 317.867 585.993C316.696 588.654 315.484 591.434 314.233 594.333C312.982 597.212 311.682 600.24 310.332 603.417C309.934 604.331 309.507 605.413 309.051 606.664C308.614 607.915 308.207 609.116 307.83 610.268H305.506C303.62 605.602 301.882 601.352 300.294 597.52C298.705 593.668 297.057 589.726 295.35 585.695C294.952 584.782 294.307 584.077 293.414 583.581C292.54 583.064 291.656 582.737 290.763 582.598V580.632H304.345V582.717C303.749 582.737 303.004 582.866 302.111 583.104C301.217 583.322 300.771 583.63 300.771 584.027C300.771 584.087 300.82 584.246 300.919 584.504C301.019 584.742 301.118 585.02 301.217 585.338C302.031 587.363 303.183 590.193 304.672 593.827C306.162 597.46 307.373 600.389 308.306 602.613C309.021 600.906 309.915 598.781 310.987 596.239C312.079 593.698 313.25 590.858 314.501 587.721C314.7 587.185 314.889 586.688 315.067 586.231C315.246 585.755 315.335 585.278 315.335 584.802C315.335 584.464 315.167 584.166 314.829 583.908C314.511 583.63 314.124 583.392 313.667 583.193C313.211 582.995 312.764 582.846 312.327 582.747C311.89 582.647 311.533 582.578 311.255 582.538V580.632H322.484V582.449ZM349.886 603.09C348.655 605.433 347.007 607.299 344.942 608.689C342.877 610.079 340.504 610.774 337.823 610.774C335.46 610.774 333.385 610.357 331.598 609.523C329.831 608.689 328.371 607.558 327.22 606.128C326.068 604.698 325.204 603.03 324.628 601.124C324.072 599.218 323.794 597.202 323.794 595.078C323.794 593.171 324.092 591.305 324.688 589.478C325.304 587.631 326.197 585.973 327.369 584.504C328.5 583.094 329.9 581.962 331.568 581.108C333.256 580.235 335.143 579.798 337.228 579.798C339.372 579.798 341.209 580.135 342.738 580.811C344.267 581.486 345.508 582.409 346.461 583.581C347.374 584.693 348.049 586.003 348.486 587.512C348.943 589.021 349.171 590.66 349.171 592.427V594.393H329.722C329.722 596.319 329.9 598.066 330.258 599.635C330.635 601.203 331.221 602.583 332.015 603.775C332.79 604.927 333.802 605.84 335.053 606.515C336.304 607.17 337.793 607.498 339.521 607.498C341.288 607.498 342.807 607.091 344.078 606.277C345.369 605.443 346.61 603.954 347.801 601.809L349.886 603.09ZM343.304 591.891C343.304 590.779 343.204 589.587 343.006 588.316C342.827 587.046 342.529 585.983 342.112 585.129C341.656 584.216 341.03 583.471 340.236 582.896C339.442 582.32 338.419 582.032 337.168 582.032C335.083 582.032 333.346 582.905 331.956 584.653C330.585 586.38 329.841 588.793 329.722 591.891H343.304ZM375.77 584.415C375.77 585.427 375.521 586.331 375.025 587.125C374.528 587.899 373.764 588.287 372.731 588.287C371.619 588.287 370.766 587.999 370.17 587.423C369.594 586.847 369.306 586.212 369.306 585.517C369.306 585.08 369.336 584.683 369.396 584.325C369.475 583.968 369.544 583.61 369.604 583.253C368.671 583.253 367.579 583.63 366.328 584.385C365.077 585.139 364.014 586.212 363.141 587.602V604.698C363.141 605.393 363.27 605.959 363.528 606.396C363.806 606.833 364.233 607.16 364.809 607.379C365.305 607.577 365.94 607.726 366.715 607.826C367.509 607.925 368.194 607.994 368.77 608.034V610H353.282V608.034C353.738 607.994 354.205 607.955 354.682 607.915C355.178 607.875 355.605 607.796 355.962 607.677C356.518 607.498 356.925 607.19 357.184 606.753C357.462 606.297 357.601 605.711 357.601 604.996V586.857C357.601 586.241 357.452 585.636 357.154 585.04C356.876 584.444 356.479 583.968 355.962 583.61C355.585 583.372 355.138 583.203 354.622 583.104C354.106 582.985 353.55 582.905 352.954 582.866V580.93L362.724 580.274L363.141 580.691V584.832H363.29C364.521 583.223 365.891 582.002 367.4 581.168C368.909 580.334 370.289 579.917 371.54 579.917C372.791 579.917 373.804 580.324 374.578 581.138C375.372 581.952 375.77 583.044 375.77 584.415ZM396.44 608.719C395.15 609.255 393.929 609.702 392.777 610.06C391.625 610.437 390.215 610.625 388.547 610.625C386.085 610.625 384.348 610.01 383.335 608.779C382.342 607.528 381.846 605.771 381.846 603.507V583.61H376.544V580.751H381.965V571.607H387.386V580.751H395.815V583.61H387.445V600.022C387.445 601.253 387.485 602.286 387.564 603.12C387.664 603.934 387.882 604.649 388.22 605.264C388.537 605.84 389.014 606.277 389.649 606.575C390.285 606.873 391.139 607.021 392.211 607.021C392.707 607.021 393.432 606.982 394.385 606.902C395.358 606.803 396.043 606.684 396.44 606.545V608.719ZM430.872 609.464L421.311 610.119L420.864 609.702V605.979H420.686C420.209 606.475 419.673 607.012 419.077 607.587C418.481 608.143 417.796 608.65 417.022 609.106C416.128 609.643 415.265 610.05 414.431 610.328C413.597 610.606 412.415 610.745 410.886 610.745C408.285 610.745 406.299 609.901 404.929 608.213C403.579 606.505 402.904 604.033 402.904 600.796V586.738C402.904 586.023 402.765 585.427 402.487 584.951C402.229 584.454 401.841 584.027 401.325 583.67C400.968 583.432 400.521 583.263 399.985 583.164C399.449 583.044 398.883 582.965 398.287 582.925V580.989L408.086 580.274L408.533 580.691V601.094C408.533 603.219 409.01 604.817 409.963 605.89C410.916 606.962 412.058 607.498 413.388 607.498C414.48 607.498 415.453 607.329 416.307 606.992C417.161 606.654 417.876 606.257 418.452 605.8C418.988 605.383 419.454 604.946 419.852 604.49C420.269 604.013 420.586 603.576 420.805 603.179V586.529C420.805 585.874 420.666 585.298 420.388 584.802C420.11 584.285 419.722 583.849 419.226 583.491C418.869 583.253 418.333 583.114 417.618 583.074C416.923 583.015 416.138 582.965 415.265 582.925V580.989L425.928 580.274L426.375 580.691V604.013C426.375 604.688 426.514 605.264 426.792 605.741C427.069 606.217 427.457 606.624 427.953 606.962C428.311 607.18 428.737 607.329 429.234 607.409C429.73 607.468 430.276 607.508 430.872 607.528V609.464ZM456.964 584.415C456.964 585.427 456.716 586.331 456.219 587.125C455.723 587.899 454.958 588.287 453.926 588.287C452.814 588.287 451.96 587.999 451.364 587.423C450.788 586.847 450.5 586.212 450.5 585.517C450.5 585.08 450.53 584.683 450.59 584.325C450.669 583.968 450.739 583.61 450.798 583.253C449.865 583.253 448.773 583.63 447.522 584.385C446.271 585.139 445.209 586.212 444.335 587.602V604.698C444.335 605.393 444.464 605.959 444.722 606.396C445 606.833 445.427 607.16 446.003 607.379C446.499 607.577 447.135 607.726 447.909 607.826C448.703 607.925 449.389 607.994 449.964 608.034V610H434.476V608.034C434.933 607.994 435.399 607.955 435.876 607.915C436.372 607.875 436.799 607.796 437.157 607.677C437.713 607.498 438.12 607.19 438.378 606.753C438.656 606.297 438.795 605.711 438.795 604.996V586.857C438.795 586.241 438.646 585.636 438.348 585.04C438.07 584.444 437.673 583.968 437.157 583.61C436.779 583.372 436.333 583.203 435.816 583.104C435.3 582.985 434.744 582.905 434.148 582.866V580.93L443.918 580.274L444.335 580.691V584.832H444.484C445.715 583.223 447.085 582.002 448.594 581.168C450.103 580.334 451.483 579.917 452.734 579.917C453.985 579.917 454.998 580.324 455.772 581.138C456.567 581.952 456.964 583.044 456.964 584.415ZM485.587 603.09C484.356 605.433 482.708 607.299 480.643 608.689C478.578 610.079 476.205 610.774 473.524 610.774C471.161 610.774 469.086 610.357 467.299 609.523C465.532 608.689 464.073 607.558 462.921 606.128C461.769 604.698 460.905 603.03 460.33 601.124C459.774 599.218 459.496 597.202 459.496 595.078C459.496 593.171 459.793 591.305 460.389 589.478C461.005 587.631 461.898 585.973 463.07 584.504C464.202 583.094 465.602 581.962 467.27 581.108C468.957 580.235 470.844 579.798 472.929 579.798C475.073 579.798 476.91 580.135 478.439 580.811C479.968 581.486 481.209 582.409 482.162 583.581C483.076 584.693 483.751 586.003 484.188 587.512C484.644 589.021 484.873 590.66 484.873 592.427V594.393H465.423C465.423 596.319 465.602 598.066 465.959 599.635C466.336 601.203 466.922 602.583 467.716 603.775C468.491 604.927 469.503 605.84 470.754 606.515C472.005 607.17 473.495 607.498 475.222 607.498C476.989 607.498 478.508 607.091 479.779 606.277C481.07 605.443 482.311 603.954 483.502 601.809L485.587 603.09ZM479.005 591.891C479.005 590.779 478.906 589.587 478.707 588.316C478.528 587.046 478.23 585.983 477.813 585.129C477.357 584.216 476.731 583.471 475.937 582.896C475.143 582.32 474.12 582.032 472.869 582.032C470.784 582.032 469.047 582.905 467.657 584.653C466.287 586.38 465.542 588.793 465.423 591.891H479.005ZM165.159 679H150.772V677.034C151.229 676.994 151.726 676.955 152.262 676.915C152.818 676.875 153.274 676.796 153.632 676.677C154.188 676.498 154.595 676.19 154.853 675.753C155.131 675.297 155.27 674.711 155.27 673.996V658.895C155.27 656.81 154.774 655.202 153.781 654.07C152.808 652.938 151.616 652.372 150.207 652.372C149.154 652.372 148.191 652.541 147.317 652.878C146.444 653.196 145.669 653.593 144.994 654.07C144.339 654.527 143.813 655.023 143.416 655.559C143.038 656.075 142.76 656.492 142.582 656.81V673.698C142.582 674.373 142.721 674.929 142.999 675.366C143.277 675.803 143.694 676.141 144.25 676.379C144.667 676.577 145.113 676.726 145.59 676.826C146.086 676.925 146.593 676.994 147.109 677.034V679H132.723V677.034C133.179 676.994 133.646 676.955 134.123 676.915C134.619 676.875 135.046 676.796 135.403 676.677C135.959 676.498 136.366 676.19 136.625 675.753C136.903 675.297 137.042 674.711 137.042 673.996V655.857C137.042 655.182 136.893 654.566 136.595 654.01C136.317 653.434 135.92 652.968 135.403 652.61C135.026 652.372 134.579 652.203 134.063 652.104C133.547 651.985 132.991 651.905 132.395 651.866V649.93L142.165 649.274L142.582 649.691V653.832H142.73C143.207 653.355 143.803 652.789 144.518 652.134C145.232 651.459 145.908 650.913 146.543 650.496C147.278 650.019 148.151 649.622 149.164 649.304C150.177 648.986 151.319 648.828 152.589 648.828C155.409 648.828 157.494 649.711 158.844 651.479C160.214 653.226 160.899 655.559 160.899 658.478V673.758C160.899 674.453 161.019 675.019 161.257 675.456C161.495 675.873 161.902 676.2 162.478 676.438C162.955 676.637 163.362 676.776 163.699 676.855C164.057 676.935 164.543 676.994 165.159 677.034V679ZM197.386 664.018C197.386 666.083 197.059 668.118 196.403 670.124C195.748 672.11 194.815 673.798 193.604 675.188C192.233 676.776 190.645 677.958 188.838 678.732C187.031 679.506 185.006 679.894 182.762 679.894C180.895 679.894 179.118 679.546 177.43 678.851C175.742 678.136 174.243 677.104 172.933 675.753C171.642 674.423 170.609 672.805 169.835 670.898C169.08 668.972 168.703 666.818 168.703 664.435C168.703 659.848 170.034 656.095 172.694 653.176C175.375 650.257 178.88 648.798 183.208 648.798C187.319 648.798 190.704 650.188 193.365 652.968C196.046 655.728 197.386 659.411 197.386 664.018ZM191.221 664.078C191.221 662.588 191.072 661.02 190.774 659.372C190.476 657.704 190.029 656.294 189.434 655.142C188.798 653.911 187.964 652.928 186.932 652.193C185.899 651.439 184.638 651.062 183.149 651.062C181.62 651.062 180.309 651.439 179.217 652.193C178.145 652.948 177.271 653.98 176.596 655.291C175.961 656.502 175.514 657.882 175.256 659.431C174.998 660.98 174.869 662.479 174.869 663.929C174.869 665.835 175.018 667.602 175.315 669.23C175.633 670.839 176.13 672.278 176.805 673.549C177.48 674.82 178.324 675.823 179.336 676.558C180.369 677.272 181.64 677.63 183.149 677.63C185.631 677.63 187.597 676.429 189.046 674.026C190.496 671.623 191.221 668.307 191.221 664.078ZM234.082 679H219.695V677.034C220.152 676.994 220.648 676.955 221.185 676.915C221.741 676.875 222.197 676.796 222.555 676.677C223.111 676.498 223.518 676.19 223.776 675.753C224.054 675.297 224.193 674.711 224.193 673.996V658.895C224.193 656.81 223.696 655.202 222.704 654.07C221.731 652.938 220.539 652.372 219.129 652.372C218.077 652.372 217.114 652.541 216.24 652.878C215.367 653.196 214.592 653.593 213.917 654.07C213.262 654.527 212.736 655.023 212.338 655.559C211.961 656.075 211.683 656.492 211.504 656.81V673.698C211.504 674.373 211.643 674.929 211.921 675.366C212.199 675.803 212.616 676.141 213.172 676.379C213.589 676.577 214.036 676.726 214.513 676.826C215.009 676.925 215.515 676.994 216.032 677.034V679H201.646V677.034C202.102 676.994 202.569 676.955 203.045 676.915C203.542 676.875 203.969 676.796 204.326 676.677C204.882 676.498 205.289 676.19 205.547 675.753C205.825 675.297 205.964 674.711 205.964 673.996V655.857C205.964 655.182 205.815 654.566 205.518 654.01C205.24 653.434 204.842 652.968 204.326 652.61C203.949 652.372 203.502 652.203 202.986 652.104C202.47 651.985 201.914 651.905 201.318 651.866V649.93L211.087 649.274L211.504 649.691V653.832H211.653C212.13 653.355 212.726 652.789 213.44 652.134C214.155 651.459 214.83 650.913 215.466 650.496C216.201 650.019 217.074 649.622 218.087 649.304C219.1 648.986 220.241 648.828 221.512 648.828C224.332 648.828 226.417 649.711 227.767 651.479C229.137 653.226 229.822 655.559 229.822 658.478V673.758C229.822 674.453 229.941 675.019 230.18 675.456C230.418 675.873 230.825 676.2 231.401 676.438C231.877 676.637 232.285 676.776 232.622 676.855C232.979 676.935 233.466 676.994 234.082 677.034V679ZM255.825 665.15H238.073V660.474H255.825V665.15ZM292.669 678.464L282.423 679.119L281.976 678.702V675.962L281.738 675.902C280.705 677.054 279.424 677.997 277.896 678.732C276.386 679.467 274.828 679.834 273.219 679.834C271.551 679.834 269.933 679.467 268.364 678.732C266.815 677.977 265.465 676.925 264.313 675.575C263.142 674.205 262.209 672.556 261.514 670.63C260.839 668.704 260.501 666.58 260.501 664.256C260.501 662.132 260.868 660.116 261.603 658.21C262.338 656.304 263.35 654.636 264.641 653.206C265.852 651.876 267.332 650.813 269.079 650.019C270.846 649.225 272.643 648.828 274.47 648.828C275.84 648.828 277.181 649.006 278.491 649.364C279.822 649.701 280.963 650.138 281.917 650.674V640.458C281.917 639.624 281.778 638.869 281.5 638.194C281.222 637.499 280.834 636.973 280.338 636.616C279.782 636.238 279.027 635.97 278.074 635.812C277.141 635.633 276.128 635.504 275.036 635.424V633.578L287.04 632.893L287.486 633.339V672.954C287.486 673.649 287.615 674.244 287.874 674.741C288.152 675.217 288.549 675.624 289.065 675.962C289.442 676.2 289.988 676.349 290.703 676.409C291.418 676.468 292.073 676.508 292.669 676.528V678.464ZM281.917 673.311V656.125C281.758 655.609 281.5 655.053 281.142 654.457C280.785 653.861 280.338 653.315 279.802 652.819C279.226 652.322 278.551 651.915 277.776 651.598C277.002 651.26 276.098 651.091 275.066 651.091C273.875 651.091 272.772 651.399 271.76 652.015C270.767 652.63 269.883 653.514 269.109 654.666C268.374 655.778 267.788 657.197 267.352 658.925C266.935 660.632 266.726 662.529 266.726 664.614C266.726 666.282 266.885 667.801 267.203 669.171C267.52 670.521 268.056 671.782 268.811 672.954C269.506 674.066 270.39 674.959 271.462 675.634C272.554 676.309 273.845 676.647 275.334 676.647C276.923 676.647 278.233 676.299 279.266 675.604C280.318 674.91 281.202 674.145 281.917 673.311ZM309.795 679H295.588V677.034C296.045 676.994 296.511 676.955 296.988 676.915C297.484 676.875 297.911 676.796 298.269 676.677C298.825 676.498 299.232 676.19 299.49 675.753C299.768 675.297 299.907 674.711 299.907 673.996V655.857C299.907 655.222 299.758 654.646 299.46 654.129C299.182 653.593 298.785 653.146 298.269 652.789C297.891 652.551 297.345 652.352 296.63 652.193C295.916 652.015 295.26 651.905 294.665 651.866V649.93L305.03 649.274L305.447 649.691V673.639C305.447 674.334 305.576 674.91 305.834 675.366C306.112 675.823 306.539 676.16 307.115 676.379C307.552 676.558 307.979 676.707 308.396 676.826C308.812 676.925 309.279 676.994 309.795 677.034V679ZM306.042 637.688C306.042 638.82 305.665 639.813 304.911 640.667C304.176 641.5 303.263 641.917 302.17 641.917C301.158 641.917 300.274 641.52 299.52 640.726C298.785 639.912 298.417 638.989 298.417 637.956C298.417 636.864 298.785 635.911 299.52 635.097C300.274 634.283 301.158 633.875 302.17 633.875C303.302 633.875 304.226 634.263 304.94 635.037C305.675 635.792 306.042 636.675 306.042 637.688ZM332.79 664.614C333.604 665.329 334.229 666.153 334.666 667.086C335.103 668.019 335.321 669.161 335.321 670.511C335.321 673.232 334.299 675.456 332.253 677.183C330.228 678.911 327.597 679.774 324.36 679.774C322.653 679.774 321.074 679.467 319.625 678.851C318.195 678.236 317.172 677.67 316.557 677.153L315.961 679.089H313.727L313.429 668.873H315.484C315.643 669.647 315.981 670.551 316.497 671.583C317.013 672.616 317.639 673.549 318.374 674.383C319.148 675.257 320.071 675.992 321.144 676.587C322.236 677.183 323.457 677.481 324.807 677.481C326.713 677.481 328.183 677.054 329.215 676.2C330.248 675.326 330.764 674.085 330.764 672.477C330.764 671.643 330.595 670.928 330.258 670.333C329.94 669.717 329.464 669.181 328.828 668.724C328.173 668.267 327.369 667.86 326.416 667.503C325.462 667.126 324.4 666.758 323.229 666.401C322.295 666.123 321.253 665.746 320.101 665.269C318.969 664.773 317.996 664.197 317.182 663.542C316.308 662.847 315.594 661.993 315.038 660.98C314.482 659.967 314.204 658.776 314.204 657.406C314.204 655.003 315.097 652.968 316.884 651.3C318.671 649.632 321.064 648.798 324.062 648.798C325.214 648.798 326.386 648.947 327.577 649.245C328.788 649.542 329.771 649.9 330.526 650.317L331.211 648.768H333.355L333.802 658.21H331.747C331.33 656.105 330.427 654.397 329.037 653.087C327.667 651.757 325.989 651.091 324.003 651.091C322.375 651.091 321.094 651.498 320.161 652.312C319.227 653.127 318.761 654.11 318.761 655.261C318.761 656.155 318.91 656.899 319.208 657.495C319.525 658.091 319.992 658.597 320.607 659.014C321.203 659.411 321.948 659.789 322.841 660.146C323.755 660.484 324.877 660.871 326.207 661.308C327.518 661.725 328.749 662.211 329.9 662.767C331.072 663.323 332.035 663.939 332.79 664.614ZM366.625 653.117C367.797 654.507 368.701 656.125 369.336 657.972C369.991 659.799 370.319 661.893 370.319 664.256C370.319 666.58 369.932 668.704 369.157 670.63C368.383 672.537 367.36 674.165 366.089 675.515C364.759 676.885 363.28 677.938 361.651 678.672C360.023 679.407 358.296 679.774 356.469 679.774C354.701 679.774 353.252 679.576 352.12 679.179C350.988 678.782 350.065 678.315 349.35 677.779H349.112V686.595C349.112 687.31 349.251 687.906 349.529 688.382C349.807 688.859 350.234 689.206 350.81 689.425C351.286 689.604 351.961 689.772 352.835 689.931C353.729 690.11 354.463 690.209 355.039 690.229V692.225H338.627V690.229C339.243 690.189 339.839 690.14 340.415 690.08C340.99 690.021 341.507 689.921 341.963 689.782C342.559 689.584 342.976 689.236 343.214 688.74C343.453 688.243 343.572 687.658 343.572 686.982V655.738C343.572 655.142 343.423 654.566 343.125 654.01C342.827 653.454 342.44 653.007 341.963 652.67C341.606 652.432 341.11 652.253 340.474 652.134C339.839 651.995 339.223 651.905 338.627 651.866V649.93L348.635 649.274L349.052 649.632V652.938L349.291 652.998C350.323 651.806 351.604 650.813 353.133 650.019C354.662 649.225 356.181 648.828 357.69 648.828C359.517 648.828 361.185 649.215 362.694 649.989C364.223 650.764 365.533 651.806 366.625 653.117ZM361.771 674.234C362.565 673.003 363.151 671.574 363.528 669.945C363.905 668.317 364.094 666.5 364.094 664.495C364.094 663.025 363.935 661.526 363.617 659.997C363.299 658.468 362.803 657.138 362.128 656.006C361.453 654.854 360.569 653.921 359.477 653.206C358.385 652.491 357.074 652.134 355.545 652.134C354.076 652.134 352.825 652.461 351.792 653.117C350.76 653.752 349.866 654.517 349.112 655.41V672.775C349.291 673.311 349.578 673.867 349.976 674.443C350.393 675.019 350.849 675.515 351.346 675.932C351.961 676.429 352.626 676.836 353.341 677.153C354.056 677.451 354.93 677.6 355.962 677.6C357.074 677.6 358.147 677.312 359.179 676.736C360.212 676.141 361.076 675.307 361.771 674.234ZM403.261 664.018C403.261 666.083 402.934 668.118 402.278 670.124C401.623 672.11 400.69 673.798 399.479 675.188C398.108 676.776 396.52 677.958 394.713 678.732C392.906 679.506 390.881 679.894 388.637 679.894C386.77 679.894 384.993 679.546 383.305 678.851C381.617 678.136 380.118 677.104 378.808 675.753C377.517 674.423 376.484 672.805 375.71 670.898C374.955 668.972 374.578 666.818 374.578 664.435C374.578 659.848 375.909 656.095 378.569 653.176C381.25 650.257 384.755 648.798 389.083 648.798C393.194 648.798 396.579 650.188 399.24 652.968C401.921 655.728 403.261 659.411 403.261 664.018ZM397.096 664.078C397.096 662.588 396.947 661.02 396.649 659.372C396.351 657.704 395.904 656.294 395.309 655.142C394.673 653.911 393.839 652.928 392.807 652.193C391.774 651.439 390.513 651.062 389.024 651.062C387.495 651.062 386.184 651.439 385.092 652.193C384.02 652.948 383.146 653.98 382.471 655.291C381.836 656.502 381.389 657.882 381.131 659.431C380.873 660.98 380.744 662.479 380.744 663.929C380.744 665.835 380.893 667.602 381.19 669.23C381.508 670.839 382.005 672.278 382.68 673.549C383.355 674.82 384.199 675.823 385.211 676.558C386.244 677.272 387.515 677.63 389.024 677.63C391.506 677.63 393.472 676.429 394.921 674.026C396.371 671.623 397.096 668.307 397.096 664.078ZM439.957 679H425.57V677.034C426.027 676.994 426.523 676.955 427.06 676.915C427.616 676.875 428.072 676.796 428.43 676.677C428.986 676.498 429.393 676.19 429.651 675.753C429.929 675.297 430.068 674.711 430.068 673.996V658.895C430.068 656.81 429.571 655.202 428.579 654.07C427.606 652.938 426.414 652.372 425.004 652.372C423.952 652.372 422.989 652.541 422.115 652.878C421.242 653.196 420.467 653.593 419.792 654.07C419.137 654.527 418.611 655.023 418.213 655.559C417.836 656.075 417.558 656.492 417.379 656.81V673.698C417.379 674.373 417.518 674.929 417.796 675.366C418.074 675.803 418.491 676.141 419.047 676.379C419.464 676.577 419.911 676.726 420.388 676.826C420.884 676.925 421.39 676.994 421.907 677.034V679H407.521V677.034C407.977 676.994 408.444 676.955 408.92 676.915C409.417 676.875 409.844 676.796 410.201 676.677C410.757 676.498 411.164 676.19 411.422 675.753C411.7 675.297 411.839 674.711 411.839 673.996V655.857C411.839 655.182 411.69 654.566 411.393 654.01C411.115 653.434 410.717 652.968 410.201 652.61C409.824 652.372 409.377 652.203 408.861 652.104C408.345 651.985 407.789 651.905 407.193 651.866V649.93L416.962 649.274L417.379 649.691V653.832H417.528C418.005 653.355 418.601 652.789 419.315 652.134C420.03 651.459 420.705 650.913 421.341 650.496C422.076 650.019 422.949 649.622 423.962 649.304C424.975 648.986 426.116 648.828 427.387 648.828C430.207 648.828 432.292 649.711 433.642 651.479C435.012 653.226 435.697 655.559 435.697 658.478V673.758C435.697 674.453 435.816 675.019 436.055 675.456C436.293 675.873 436.7 676.2 437.276 676.438C437.752 676.637 438.16 676.776 438.497 676.855C438.854 676.935 439.341 676.994 439.957 677.034V679ZM457.828 679H443.62V677.034C444.077 676.994 444.543 676.955 445.02 676.915C445.516 676.875 445.943 676.796 446.301 676.677C446.857 676.498 447.264 676.19 447.522 675.753C447.8 675.297 447.939 674.711 447.939 673.996V655.857C447.939 655.222 447.79 654.646 447.492 654.129C447.214 653.593 446.817 653.146 446.301 652.789C445.924 652.551 445.377 652.352 444.663 652.193C443.948 652.015 443.292 651.905 442.697 651.866V649.93L453.062 649.274L453.479 649.691V673.639C453.479 674.334 453.608 674.91 453.866 675.366C454.144 675.823 454.571 676.16 455.147 676.379C455.584 676.558 456.011 676.707 456.428 676.826C456.845 676.925 457.311 676.994 457.828 677.034V679ZM454.075 637.688C454.075 638.82 453.697 639.813 452.943 640.667C452.208 641.5 451.295 641.917 450.203 641.917C449.19 641.917 448.306 641.52 447.552 640.726C446.817 639.912 446.45 638.989 446.45 637.956C446.45 636.864 446.817 635.911 447.552 635.097C448.306 634.283 449.19 633.875 450.203 633.875C451.334 633.875 452.258 634.263 452.973 635.037C453.707 635.792 454.075 636.675 454.075 637.688ZM491.247 664.286C491.247 668.694 489.857 672.398 487.077 675.396C484.297 678.394 481.07 679.894 477.396 679.894C475.788 679.894 474.2 679.645 472.631 679.149C471.082 678.653 469.623 677.987 468.252 677.153L466.048 680.579L464.202 680.162C464.301 678.692 464.37 676.925 464.41 674.86C464.45 672.795 464.47 670.799 464.47 668.873V639.803C464.47 639.128 464.311 638.452 463.993 637.777C463.695 637.102 463.308 636.616 462.832 636.318C462.454 636.06 461.819 635.871 460.925 635.752C460.052 635.613 459.347 635.524 458.811 635.484V633.578L469.593 632.893L470.01 633.339V652.7L470.218 652.759C471.449 651.449 472.79 650.466 474.239 649.811C475.709 649.155 477.148 648.828 478.558 648.828C482.172 648.828 485.19 650.257 487.613 653.117C490.035 655.976 491.247 659.699 491.247 664.286ZM485.021 664.495C485.021 663.025 484.863 661.526 484.545 659.997C484.227 658.468 483.731 657.138 483.056 656.006C482.381 654.854 481.497 653.921 480.405 653.206C479.313 652.491 478.002 652.134 476.473 652.134C475.083 652.134 473.862 652.412 472.81 652.968C471.777 653.504 470.844 654.239 470.01 655.172V672.269C470.129 672.745 470.357 673.301 470.695 673.937C471.052 674.572 471.529 675.178 472.125 675.753C472.72 676.309 473.395 676.766 474.15 677.124C474.904 677.461 475.828 677.63 476.92 677.63C479.342 677.63 481.298 676.458 482.788 674.115C484.277 671.772 485.021 668.565 485.021 664.495ZM509.386 679H495.059V677.034C495.516 676.994 496.002 676.955 496.519 676.915C497.035 676.855 497.462 676.776 497.799 676.677C498.355 676.498 498.772 676.19 499.05 675.753C499.328 675.297 499.467 674.711 499.467 673.996V639.981C499.467 639.267 499.308 638.601 498.991 637.986C498.693 637.35 498.296 636.854 497.799 636.497C497.442 636.258 496.787 636.04 495.833 635.841C494.88 635.643 494.116 635.524 493.54 635.484V633.578L504.59 632.893L505.007 633.339V673.639C505.007 674.334 505.136 674.91 505.395 675.366C505.653 675.803 506.07 676.141 506.646 676.379C507.082 676.577 507.509 676.726 507.926 676.826C508.363 676.925 508.85 676.994 509.386 677.034V679ZM539.171 672.09C537.94 674.433 536.292 676.299 534.227 677.689C532.161 679.079 529.789 679.774 527.108 679.774C524.745 679.774 522.67 679.357 520.883 678.523C519.116 677.689 517.656 676.558 516.504 675.128C515.353 673.698 514.489 672.03 513.913 670.124C513.357 668.218 513.079 666.202 513.079 664.078C513.079 662.171 513.377 660.305 513.973 658.478C514.588 656.631 515.482 654.973 516.653 653.504C517.785 652.094 519.185 650.962 520.853 650.108C522.541 649.235 524.427 648.798 526.512 648.798C528.657 648.798 530.493 649.135 532.022 649.811C533.551 650.486 534.792 651.409 535.746 652.581C536.659 653.693 537.334 655.003 537.771 656.512C538.228 658.021 538.456 659.66 538.456 661.427V663.393H519.006C519.006 665.319 519.185 667.066 519.542 668.635C519.92 670.203 520.506 671.583 521.3 672.775C522.074 673.927 523.087 674.84 524.338 675.515C525.589 676.17 527.078 676.498 528.806 676.498C530.573 676.498 532.092 676.091 533.363 675.277C534.653 674.443 535.895 672.954 537.086 670.809L539.171 672.09ZM532.588 660.891C532.588 659.779 532.489 658.587 532.291 657.316C532.112 656.046 531.814 654.983 531.397 654.129C530.94 653.216 530.315 652.471 529.521 651.896C528.726 651.32 527.704 651.032 526.453 651.032C524.368 651.032 522.63 651.905 521.24 653.653C519.87 655.38 519.125 657.793 519.006 660.891H532.588Z" fill="#5D5A5A"/>
<defs>
<clipPath id="clip0">
<rect width="391" height="391" fill="white" transform="translate(140 128)"/>
</clipPath>
</defs>
</svg>
