<svg width="66" height="66" viewBox="0 0 66 66" fill="none" xmlns="http://www.w3.org/2000/svg">
<path fill-rule="evenodd" clip-rule="evenodd" d="M36.6121 21.9503C34.0322 22.8891 32.4019 25.3104 32.5871 27.9602L32.6492 28.9828L31.6168 28.8576C27.8607 28.3779 24.5785 26.7506 21.7917 24.016L20.4293 22.6596L20.0786 23.6614C19.3359 25.8955 19.8107 28.2528 21.3582 29.8388C22.1837 30.7155 21.9976 30.8406 20.5741 30.3185C20.0786 30.152 19.6452 30.0269 19.6038 30.089C19.46 30.2358 19.9545 32.134 20.3466 32.8856C20.8834 33.9298 21.9769 34.9523 23.1747 35.5571L24.1864 36.0369L22.9895 36.0576C21.834 36.0576 21.7927 36.0782 21.9168 36.5166C22.3295 37.8731 23.9598 39.3132 25.7763 39.9397L27.0559 40.3771L25.9418 41.045C24.2908 42.0054 22.3502 42.5472 20.4096 42.5896C19.4797 42.6103 18.7163 42.694 18.7163 42.7561C18.7163 42.9649 21.2351 44.1332 22.6999 44.5922C27.0963 45.9487 32.3192 45.3645 36.2407 43.0486C39.0275 41.3996 41.8133 38.1233 43.1146 34.9513C43.817 33.2609 44.5183 30.1717 44.5183 28.6912C44.5183 27.7307 44.5804 27.6056 45.7359 26.458C46.4176 25.7891 47.0569 25.0602 47.181 24.8513C47.3879 24.4544 47.3662 24.4544 46.3141 24.808C44.5597 25.4355 44.3115 25.3518 45.1793 24.413C45.8186 23.7451 46.583 22.5345 46.583 22.1788C46.583 22.1178 46.2737 22.2202 45.9221 22.4084C45.5507 22.6172 44.7252 22.9305 44.1056 23.1176L42.9915 23.4732L41.9798 22.7837C41.4222 22.4084 40.6391 21.9907 40.2254 21.8656C39.1723 21.575 37.5617 21.6164 36.6121 21.9503ZM2.95508 3.94019H62.0596V63.0447H2.95508V3.94019Z" fill="white"/>
</svg>
