<svg width="64" height="64" viewBox="0 0 64 64" fill="none" xmlns="http://www.w3.org/2000/svg">
<path fill-rule="evenodd" clip-rule="evenodd" d="M40.6229 39.4889C40.3573 39.4889 40.1663 39.5634 40.0497 39.7219C39.9341 39.87 39.8778 40.1269 39.8778 40.4823V41.3382H41.3517V40.4823C41.3517 40.1279 41.2925 39.8709 41.175 39.7219C41.0642 39.5634 40.876 39.4889 40.6229 39.4889ZM34.8743 39.4583C35.0978 39.4583 35.2726 39.5328 35.394 39.679C35.5115 39.8261 35.5707 40.0448 35.5707 40.3314V44.7092C35.5707 44.9824 35.5201 45.1744 35.4245 45.2928C35.329 45.4141 35.18 45.4743 34.9756 45.4743C34.8342 45.4743 34.7014 45.4418 34.5734 45.3816C34.4445 45.3224 34.3117 45.2192 34.177 45.0826V39.7993C34.2907 39.6828 34.4053 39.5958 34.5209 39.5404C34.6365 39.4841 34.754 39.4583 34.8743 39.4583ZM39.8787 42.6573V44.2554C39.8787 44.7025 39.9332 45.011 40.0411 45.1858C40.1538 45.3578 40.3401 45.4428 40.6066 45.4428C40.8827 45.4428 41.0756 45.3702 41.1855 45.224C41.2944 45.0779 41.3526 44.756 41.3526 44.2564V43.8705H43.0673V44.3051C43.0673 45.1753 42.86 45.8306 42.4397 46.2729C42.0242 46.7104 41.3995 46.9281 40.5694 46.9281C39.8233 46.9281 39.234 46.697 38.8051 46.2299C38.3771 45.7656 38.1593 45.1247 38.1593 44.3061V40.4985C38.1593 39.7649 38.3972 39.1631 38.8681 38.7008C39.339 38.2385 39.9456 38.0064 40.6935 38.0064C41.4568 38.0064 42.0433 38.2213 42.454 38.6502C42.8638 39.0781 43.0673 39.6942 43.0673 40.4985V42.6602H39.8787V42.6573ZM36.8937 46.3235C36.6348 46.6444 36.2546 46.8021 35.7598 46.8021C35.4322 46.8021 35.1427 46.7428 34.8886 46.6196C34.6336 46.4954 34.3929 46.3053 34.1761 46.0446V46.6951H32.491V35.2018H34.1761V38.9024C34.4024 38.6454 34.6393 38.4467 34.8906 38.3139C35.1456 38.1792 35.4007 38.1124 35.6595 38.1124C36.1887 38.1124 36.5909 38.2929 36.8679 38.6521C37.1487 39.0141 37.2863 39.5443 37.2863 40.2378V44.9432C37.2863 45.5431 37.1554 46.0025 36.8937 46.3235ZM29.5719 46.6951V45.7628C29.2614 46.1076 28.9433 46.3703 28.608 46.548C28.2747 46.7304 27.9528 46.8183 27.6395 46.8183C27.2526 46.8183 26.966 46.6941 26.7673 46.44C26.5753 46.1859 26.476 45.8115 26.476 45.3043V38.2146H28.1419V44.7197C28.1419 44.9212 28.1772 45.0655 28.2441 45.1543C28.3177 45.246 28.4313 45.2899 28.5861 45.2899C28.7083 45.2899 28.865 45.2307 29.0522 45.1104C29.2404 44.9909 29.4104 44.841 29.57 44.6566V38.2146H31.2359V46.6951H29.5719ZM23.8004 36.8715V46.6951H21.9205V36.8715H19.9776V35.2018H25.7433V36.8715H23.8004ZM31.5167 31.5022C31.5167 31.5003 43.0558 31.5194 44.4256 32.8873C45.8002 34.2571 45.8155 41.0191 45.8155 41.0583C45.8155 41.0583 45.804 47.8566 44.4256 49.2312C43.0558 50.5972 31.5167 50.6268 31.5167 50.6268C31.5167 50.6268 19.9786 50.5972 18.6059 49.2302C17.2323 47.8604 17.2294 41.1089 17.2294 41.0573C17.2294 41.0191 17.2332 34.2561 18.6059 32.8864C19.9795 31.5185 31.5167 31.5003 31.5167 31.5022ZM40.6162 27.945H38.7382V26.9133C38.3962 27.2926 38.0352 27.5849 37.6588 27.7816C37.2843 27.9803 36.9223 28.0797 36.5698 28.0797C36.1324 28.0797 35.8085 27.9402 35.5888 27.6613C35.3701 27.3833 35.2593 26.9668 35.2593 26.409V18.6019H37.1334V25.7632C37.1334 25.9839 37.1764 26.1444 37.2547 26.2428C37.3312 26.3421 37.4611 26.3918 37.6359 26.3918C37.7725 26.3918 37.9482 26.3268 38.1593 26.195C38.3695 26.0641 38.5634 25.897 38.7372 25.6926V18.6019H40.6152V27.945H40.6162ZM30.4211 26.3526C30.5538 26.493 30.7449 26.5618 30.9942 26.5618C31.2483 26.5618 31.4489 26.4911 31.5998 26.3488C31.7498 26.2036 31.8243 26.0068 31.8243 25.7585V20.67C31.8243 20.4656 31.7479 20.3003 31.5941 20.1742C31.4412 20.0491 31.2406 19.987 30.9942 19.987C30.764 19.987 30.5787 20.0491 30.4344 20.1742C30.2931 20.3003 30.2195 20.4656 30.2195 20.67V25.7585C30.2195 26.0135 30.2883 26.2103 30.4211 26.3526ZM29.0465 19.0117C29.5509 18.5828 30.2319 18.367 31.083 18.367C31.8587 18.367 32.4968 18.5933 32.9944 19.0471C33.4883 19.4989 33.7366 20.0816 33.7366 20.7923V25.6181C33.7366 26.4166 33.4931 27.0413 33.0088 27.4979C32.5187 27.9526 31.851 28.18 30.9971 28.18C30.1775 28.18 29.5193 27.945 29.0255 27.4769C28.5355 27.0079 28.2881 26.3765 28.2881 25.5827V20.7416C28.2871 20.0157 28.5393 19.4397 29.0465 19.0117ZM23.1757 15.2835H21.0465L23.5626 22.9281V27.945H25.6765V22.6912L28.1352 15.2835H25.986L24.6811 20.3443H24.5483L23.1757 15.2835ZM2.86572 3.8208H60.1792V61.1342H2.86572V3.8208Z" fill="white"/>
</svg>
